<?xml version="1.0" standalone="no"?>
<!DOCTYPE svg PUBLIC "-//W3C//DTD SVG 20010904//EN"
 "http://www.w3.org/TR/2001/REC-SVG-20010904/DTD/svg10.dtd">
<svg version="1.0" xmlns="http://www.w3.org/2000/svg"
 width="500.000000pt" height="483.000000pt" viewBox="0 0 500.000000 483.000000"
 preserveAspectRatio="xMidYMid meet">

<g transform="translate(0.000000,483.000000) scale(0.100000,-0.100000)"
fill="#000000" stroke="none">
<path d="M2460 4645 c8 -10 10 -37 5 -92 -8 -97 -13 -113 -31 -113 -8 0 -12
-4 -9 -10 6 -10 75 -14 75 -4 0 3 -6 12 -14 20 -11 11 -13 32 -9 91 3 43 8 81
12 85 4 4 22 -37 41 -92 19 -55 37 -100 40 -100 3 0 25 43 50 94 25 52 49 95
53 95 14 1 -4 -173 -19 -185 -21 -17 -18 -19 37 -20 42 0 48 2 35 11 -23 18
-23 180 1 207 15 17 14 18 -20 18 -36 0 -38 -2 -77 -80 -22 -44 -42 -80 -44
-80 -2 0 -18 38 -36 85 -33 84 -33 85 -68 85 -29 0 -33 -2 -22 -15z"/>
<path d="M2183 4643 c-32 -6 -40 -21 -53 -93 -21 -113 -25 -114 -71 -33 -45
78 -60 91 -97 85 -34 -5 -43 -18 -16 -24 12 -2 17 -15 19 -43 1 -22 6 -64 10
-92 6 -39 4 -57 -6 -70 -12 -15 -12 -16 4 -10 10 4 31 7 45 7 l27 0 -21 18
c-23 19 -44 90 -44 149 1 44 -3 47 75 -74 l49 -78 9 35 c5 19 14 65 21 101 20
104 28 105 47 4 16 -84 16 -91 0 -109 -15 -18 -15 -19 9 -13 14 4 39 7 55 7
l30 0 -22 18 c-28 22 -62 185 -42 208 6 8 8 13 3 13 -5 -1 -19 -4 -31 -6z"/>
<path d="M2830 4625 c7 -8 6 -36 -5 -94 -9 -45 -13 -91 -10 -102 16 -50 108
-68 149 -30 16 15 29 47 40 101 13 60 22 80 34 81 10 0 1 6 -18 13 -39 15 -48
13 -32 -7 17 -20 -13 -157 -40 -179 -41 -36 -98 -9 -98 45 1 56 25 139 45 153
10 8 15 14 9 14 -5 0 -26 4 -47 9 -30 7 -36 6 -27 -4z"/>
<path d="M1805 4555 c-26 -12 -27 -13 -8 -14 17 -1 26 -13 43 -58 36 -95 36
-117 5 -141 -54 -42 -79 -25 -118 79 -23 62 -24 69 -10 89 13 18 13 21 2 17
-8 -3 -31 -11 -51 -18 -37 -12 -55 -31 -20 -23 14 4 22 -11 45 -74 34 -99 52
-117 108 -109 84 11 100 59 59 181 -12 36 -19 70 -15 76 8 13 -4 12 -40 -5z"/>
<path d="M3106 4543 c-19 -26 -19 -26 0 -18 32 14 81 18 88 7 3 -6 -7 -50 -24
-99 -16 -48 -30 -89 -30 -91 0 -1 -10 -6 -22 -11 -22 -8 -21 -9 12 -19 19 -5
43 -13 53 -17 17 -7 18 -6 6 13 -11 17 -8 33 17 107 16 48 35 90 42 92 20 8
62 -25 62 -49 0 -16 3 -19 11 -11 6 6 9 20 7 32 -2 17 -21 28 -88 52 -47 17
-92 32 -100 35 -8 2 -24 -8 -34 -23z"/>
<path d="M3401 4452 c11 -17 7 -32 -28 -105 -31 -65 -47 -86 -63 -89 -19 -2
-15 -7 22 -25 l45 -21 -4 21 c-6 30 71 184 94 189 13 3 7 9 -22 23 -22 10 -44
21 -48 23 -5 2 -3 -5 4 -16z"/>
<path d="M1450 4408 c-19 -12 -37 -23 -39 -25 -2 -1 1 -8 6 -15 6 -7 29 -48
52 -91 30 -59 38 -83 31 -96 -8 -15 -4 -15 33 3 24 12 36 22 27 24 -15 3 -50
54 -50 73 0 18 48 9 84 -16 43 -29 55 -30 82 -10 17 13 18 14 1 15 -10 0 -40
11 -68 25 l-50 26 17 29 c16 27 16 30 0 54 -21 33 -76 35 -126 4z m90 -17 c14
-28 12 -52 -7 -73 -25 -27 -37 -22 -60 26 -16 32 -19 46 -10 55 18 18 65 13
77 -8z"/>
<path d="M3554 4372 c8 -25 -80 -173 -107 -180 -18 -5 -18 -6 4 -18 32 -18 40
-17 33 1 -4 9 5 33 20 55 14 22 26 43 26 47 0 5 9 19 18 31 18 24 19 23 36
-99 16 -116 22 -139 29 -128 2 2 29 43 61 92 32 48 63 87 68 87 6 0 3 9 -7 20
-23 25 -38 26 -30 1 5 -17 -61 -141 -76 -141 -3 0 -9 43 -12 95 -7 102 -16
128 -48 146 -18 9 -20 8 -15 -9z"/>
<path d="M1234 4281 c-42 -18 -74 -69 -74 -118 0 -39 5 -50 39 -84 32 -32 46
-39 77 -39 43 0 91 27 110 62 8 13 13 43 14 69 0 38 -5 50 -34 78 -36 35 -93
49 -132 32z m83 -37 c73 -46 76 -148 5 -175 -41 -16 -113 38 -133 98 -9 28 -8
38 6 59 29 44 71 50 122 18z"/>
<path d="M3824 4203 c9 -28 -116 -175 -142 -167 -21 7 -3 -9 81 -74 51 -39 58
-42 79 -31 22 13 21 14 -19 19 -42 6 -83 33 -83 55 0 18 119 155 135 155 20 0
55 -49 55 -79 0 -20 2 -23 10 -11 19 29 9 45 -56 99 -46 37 -64 48 -60 34z"/>
<path d="M1013 4110 c-35 -32 -42 -46 -18 -37 17 7 40 -12 99 -82 27 -32 46
-65 47 -80 0 -25 1 -25 11 -5 5 12 21 27 34 35 30 15 31 26 3 25 -28 -1 -151
136 -143 159 8 21 4 19 -33 -15z"/>
<path d="M3823 4050 c14 -36 17 -37 41 -3 18 24 18 26 2 20 -10 -4 -26 -3 -36
3 -17 9 -17 7 -7 -20z"/>
<path d="M4017 4027 c4 -19 -9 -36 -64 -86 -37 -33 -74 -59 -80 -56 -20 7 -15
-10 7 -30 19 -17 20 -17 20 -1 0 10 26 42 58 72 57 53 76 65 67 42 -8 -20 -34
-232 -30 -237 2 -2 37 26 78 62 40 37 84 70 96 75 l22 8 -25 23 c-23 21 -24
22 -20 4 4 -15 -9 -33 -52 -71 -32 -28 -60 -50 -61 -48 -2 1 4 40 12 87 20
110 19 142 -3 162 -25 23 -30 21 -25 -6z"/>
<path d="M2410 4024 c0 -4 -9 -61 -21 -128 -11 -67 -22 -170 -23 -231 -1 -60
-6 -118 -10 -127 -5 -11 -4 -18 2 -18 6 0 18 -15 27 -34 13 -26 14 -39 6 -54
-6 -12 -8 -27 -6 -35 3 -7 -14 -46 -38 -85 -24 -39 -54 -100 -67 -134 -26 -73
-31 -81 -52 -73 -22 9 -33 41 -58 164 -15 74 -19 121 -14 158 6 49 4 56 -18
76 -17 16 -28 40 -33 73 -7 52 -30 104 -45 104 -5 0 -5 -13 1 -32 16 -57 14
-60 -35 -53 -77 12 -136 -35 -136 -108 0 -55 27 -97 62 -97 15 0 28 2 28 5 0
2 -11 21 -25 41 -29 43 -30 52 -9 82 24 35 51 46 84 32 34 -14 44 -34 30 -60
-16 -31 -11 -61 13 -84 18 -17 28 -47 45 -131 26 -129 27 -145 8 -145 -22 0
-34 -22 -37 -70 -4 -44 -3 -45 38 -64 35 -16 43 -25 52 -62 15 -58 14 -149 -2
-162 -14 -12 -75 -3 -152 23 -27 10 -94 46 -148 81 -206 134 -314 176 -467
178 -96 1 -109 4 -153 29 -55 32 -66 30 -42 -7 24 -37 15 -52 -17 -27 -40 32
-46 27 -35 -28 8 -38 7 -61 -7 -110 -22 -77 -17 -106 56 -345 22 -71 40 -109
63 -134 l32 -36 54 15 54 14 0 43 c0 31 5 46 18 53 21 12 22 42 2 59 -19 15
-20 50 -2 50 35 0 74 -84 84 -182 6 -56 5 -58 -53 -147 -66 -103 -57 -99 -190
-80 -72 11 -78 11 -91 -7 -10 -13 -13 -34 -9 -67 8 -70 63 -262 93 -323 29
-60 122 -169 133 -157 14 16 53 147 44 150 -5 2 -24 12 -42 23 -24 15 -32 26
-28 37 5 11 -6 29 -29 53 -38 39 -75 144 -57 162 9 9 166 -35 188 -53 6 -5 16
-28 23 -51 16 -54 82 -179 123 -232 18 -23 79 -89 136 -147 l104 -107 -20 -43
c-19 -44 -58 -89 -100 -117 -23 -15 -30 -28 -46 -79 -7 -23 -6 -23 88 -23 l96
0 0 48 c0 41 5 53 30 77 17 16 36 48 43 71 7 23 17 42 22 43 6 1 43 -6 84 -15
95 -21 168 -15 299 27 82 26 101 36 97 48 -4 9 -10 36 -15 61 -4 25 -10 52
-13 60 -4 8 2 33 11 55 l18 40 105 -3 c57 -2 106 -6 109 -9 14 -13 1 -131 -19
-168 -26 -50 -27 -72 -1 -80 20 -6 24 -15 20 -49 -1 -16 3 -17 42 -11 24 4 65
13 92 21 27 8 56 14 63 14 30 0 10 -45 -46 -103 -32 -34 -66 -77 -75 -94 l-17
-33 96 0 95 0 0 45 c0 39 6 52 39 88 23 25 41 55 43 72 l3 30 155 3 c85 1 160
0 168 -3 18 -7 2 -34 -63 -105 -47 -51 -85 -107 -85 -125 0 -3 43 -5 95 -5
l95 0 0 45 c0 39 6 52 39 88 23 25 41 55 43 72 3 29 4 30 66 33 34 2 62 4 62
6 0 1 -12 31 -26 67 -14 35 -45 119 -70 187 -52 145 -57 218 -24 375 17 84 18
101 6 140 l-13 44 68 -5 c60 -4 75 -1 134 27 84 39 118 40 133 6 7 -14 12 -38
12 -53 0 -97 49 -147 137 -138 28 2 62 10 75 17 22 13 21 14 -23 19 -26 3 -54
12 -63 19 -33 27 -14 113 41 189 38 51 41 95 9 142 -73 110 -211 99 -305 -26
-66 -86 -76 -97 -105 -115 -17 -10 -48 -19 -69 -19 -42 0 -66 14 -153 90 -30
27 -65 51 -77 54 -12 3 -112 19 -223 35 -110 17 -212 35 -226 40 -30 11 -28 4
-53 226 -8 72 -26 216 -40 320 -23 178 -24 193 -9 232 25 65 12 108 -47 165
l-49 46 -31 219 c-17 120 -33 225 -36 233 -5 17 -25 -34 -44 -112 -6 -28 -16
-47 -23 -45 -6 2 -22 40 -36 85 -14 45 -28 82 -32 82 -5 0 -8 -3 -8 -6z"/>
<path d="M875 3962 c-16 -11 -52 -43 -78 -71 -43 -47 -46 -52 -24 -49 18 2 43
-13 92 -56 57 -50 66 -63 62 -85 -4 -22 5 -15 54 38 67 73 81 114 56 167 -31
63 -108 90 -162 56z m76 -27 c35 -19 69 -70 69 -105 0 -14 -11 -38 -24 -55
-27 -33 -18 -37 -118 50 -32 27 -58 54 -58 60 0 13 38 50 60 58 26 9 40 8 71
-8z"/>
<path d="M701 3781 c-1 -8 -9 -23 -18 -34 -17 -19 -17 -19 3 -13 23 7 138 -64
155 -96 15 -29 7 -59 -23 -81 l-26 -20 -49 28 c-90 52 -114 74 -107 98 3 13
-7 4 -25 -20 -36 -50 -37 -53 -13 -46 11 3 45 -12 83 -37 34 -22 74 -43 87
-47 49 -12 113 66 96 116 -5 14 -39 48 -76 76 -36 27 -71 59 -76 70 -7 13 -11
15 -11 6z"/>
<path d="M4192 3773 c-24 -9 -33 -51 -21 -99 11 -41 10 -48 -9 -66 -24 -24
-44 -19 -68 16 -15 24 -15 28 1 52 21 33 16 38 -15 14 l-25 -19 20 -38 c26
-48 57 -65 97 -51 42 15 53 46 39 103 -14 56 -2 78 38 73 24 -3 26 -7 25 -45
-1 -38 1 -41 18 -32 10 5 18 15 18 22 0 14 -28 58 -44 69 -12 9 -54 9 -74 1z"/>
<path d="M4360 3614 c0 -27 -151 -118 -179 -109 -21 6 -21 6 0 -30 18 -29 24
-34 31 -22 13 24 165 108 182 101 22 -8 20 -1 -9 42 -18 27 -25 32 -25 18z"/>
<path d="M529 3513 c-5 -15 -27 -60 -47 -101 -36 -72 -36 -74 -18 -88 28 -20
42 -17 23 4 -21 23 -21 31 1 60 l18 23 84 -43 c61 -31 86 -49 90 -66 4 -19 8
-16 26 24 21 45 21 46 2 40 -25 -6 -188 73 -188 91 0 23 37 52 59 46 31 -8 26
4 -9 22 -30 15 -30 15 -41 -12z"/>
<path d="M4376 3438 c-10 -13 -16 -44 -16 -75 0 -55 -20 -80 -55 -67 -36 14
-39 84 -3 97 7 2 10 8 6 12 -12 13 -60 -25 -54 -42 3 -8 6 -22 6 -32 0 -28 38
-61 70 -61 47 0 70 31 70 94 0 64 17 85 55 68 27 -13 34 -49 13 -70 -17 -17
-2 -28 17 -12 22 18 18 53 -10 84 -31 33 -77 35 -99 4z"/>
<path d="M406 3238 c-19 -27 -21 -89 -4 -106 7 -7 28 -12 47 -12 27 0 44 9 73
37 34 33 40 35 63 25 48 -22 16 -103 -34 -87 -29 9 -26 -9 3 -23 26 -12 41 -1
65 45 17 33 14 51 -14 78 -36 37 -72 32 -120 -15 l-42 -41 -23 19 c-22 18 -23
22 -12 47 7 15 22 29 33 32 16 4 18 8 7 14 -20 13 -25 11 -42 -13z"/>
<path d="M4582 3137 c-14 -16 -153 -67 -184 -67 -9 0 -19 6 -21 13 -15 36 -4
-27 16 -92 19 -64 26 -76 50 -82 35 -9 34 -2 -3 30 -20 17 -32 37 -33 56 -2
29 0 31 87 59 75 25 92 27 109 17 18 -12 19 -11 12 6 -4 10 -10 31 -14 47 -6
25 -8 27 -19 13z"/>
<path d="M4612 3009 c-15 -47 -9 -60 15 -36 13 12 14 23 7 47 l-9 31 -13 -42z"/>
<path d="M4506 3026 c3 -8 1 -17 -5 -21 -22 -13 -11 -25 17 -19 33 8 53 24 29
24 -10 0 -20 7 -23 15 -4 8 -10 15 -15 15 -4 0 -6 -6 -3 -14z"/>
<path d="M310 2900 c-43 -43 -14 -120 46 -120 29 0 39 6 62 40 29 43 51 55 82
45 44 -14 15 -95 -33 -95 -18 0 -19 -2 -7 -10 29 -18 47 -10 65 30 46 102 -65
156 -128 63 -20 -31 -35 -43 -52 -43 -50 0 -54 70 -5 85 11 3 20 11 20 16 0
16 -29 10 -50 -11z"/>
<path d="M4643 2871 c46 -55 34 -67 -81 -82 -75 -9 -95 -9 -108 2 -14 11 -15
9 -9 -27 8 -41 25 -71 25 -42 0 17 22 22 144 34 l68 7 -4 58 c-5 66 -4 64 -37
74 l-25 8 27 -32z"/>
<path d="M4680 2731 c0 -14 -7 -33 -17 -43 -16 -18 -8 -23 21 -12 18 7 21 41
6 64 -8 12 -10 10 -10 -9z"/>
<path d="M491 2686 c-6 -7 -61 -26 -121 -41 -61 -15 -110 -30 -110 -34 1 -18
25 -34 115 -77 55 -26 105 -54 112 -63 10 -14 12 -10 13 23 0 33 -2 37 -15 26
-12 -10 -21 -10 -45 0 -25 10 -30 18 -31 49 -1 31 -2 33 -8 11 -4 -14 -11 -25
-16 -25 -20 0 -85 27 -85 34 0 9 117 33 168 35 28 1 33 5 38 34 7 38 2 48 -15
28z"/>
<path d="M270 2464 c-13 -4 -15 -23 -13 -112 2 -91 5 -108 20 -114 37 -14 47
-9 26 15 -11 12 -23 34 -27 48 -6 26 -4 26 56 33 105 11 146 8 157 -11 8 -14
10 -5 10 37 0 50 -1 53 -14 36 -13 -17 -28 -20 -112 -20 -95 -1 -98 0 -101 22
-2 15 5 33 19 48 22 24 17 28 -21 18z"/>
<path d="M4471 2429 c0 -24 3 -38 6 -31 3 8 35 12 109 12 86 0 106 -3 111 -16
8 -22 -12 -60 -36 -67 -24 -6 -71 26 -71 49 0 8 -4 14 -10 14 -5 0 -10 -4 -10
-8 0 -5 -22 -21 -50 -36 -44 -24 -50 -31 -49 -59 0 -18 3 -27 5 -20 3 6 28 26
55 43 l49 32 21 -26 c25 -32 59 -33 87 -3 18 19 22 35 22 86 0 54 -2 62 -14
51 -18 -14 -193 -4 -213 12 -10 8 -13 0 -12 -33z"/>
<path d="M4456 2183 c-17 -106 -18 -133 -6 -148 7 -8 19 -15 27 -15 11 0 10 6
-6 26 -23 30 -26 55 -10 86 10 19 17 20 87 13 116 -10 122 -12 122 -47 0 -18
-10 -39 -26 -55 -28 -28 -26 -38 5 -28 21 6 27 20 35 85 2 19 7 49 11 65 7 28
6 29 -9 15 -14 -14 -26 -14 -104 -2 -48 8 -94 21 -103 29 -15 13 -17 10 -23
-24z"/>
<path d="M493 2191 c-16 -25 -190 -51 -203 -30 -5 7 -11 11 -13 9 -7 -9 5 -90
14 -90 5 0 9 6 9 13 0 27 194 49 218 25 14 -14 14 -15 -1 44 -11 41 -14 45
-24 29z"/>
<path d="M4547 2096 l-17 -26 37 0 c32 1 35 3 22 13 -9 7 -18 18 -20 26 -4 10
-10 6 -22 -13z"/>
<path d="M432 2027 c-13 -14 -22 -36 -22 -54 0 -38 -31 -79 -53 -70 -28 11
-37 41 -21 72 16 32 12 44 -11 25 -21 -17 -18 -70 4 -97 23 -28 71 -30 94 -5
9 10 20 34 23 53 11 55 22 71 51 67 14 -2 30 -10 36 -19 14 -23 1 -64 -25 -77
-22 -10 -22 -11 8 -11 27 -1 32 3 37 27 13 64 -19 112 -73 112 -15 0 -36 -10
-48 -23z"/>
<path d="M4429 1933 c-36 -31 -59 -78 -59 -122 0 -24 9 -35 43 -59 l43 -29 10
42 c9 39 8 42 -7 32 -25 -15 -69 6 -69 33 0 42 28 79 66 86 47 9 123 -22 143
-57 27 -48 -12 -119 -66 -119 -31 0 -21 -14 17 -23 23 -6 29 -1 50 38 31 56
31 112 0 155 -41 57 -117 68 -171 23z"/>
<path d="M549 1836 c-31 -62 -44 -72 -73 -57 -33 18 -68 10 -85 -20 -12 -22
-11 -33 10 -100 15 -46 25 -66 27 -53 2 17 22 28 92 54 57 20 97 29 111 25 12
-4 19 -3 17 1 -2 5 -10 25 -18 43 -11 29 -14 32 -20 17 -9 -27 -186 -88 -201
-70 -11 13 -4 49 13 72 17 20 47 14 73 -14 18 -19 25 -22 25 -11 0 8 16 34 35
57 35 42 42 64 26 89 -6 9 -15 1 -32 -33z"/>
<path d="M4320 1686 c0 -14 -4 -28 -10 -31 -5 -3 -10 -13 -10 -22 0 -12 3 -13
14 -4 10 9 20 9 33 2 10 -6 49 -24 88 -40 39 -16 72 -37 75 -47 6 -15 8 -13
17 12 6 16 14 37 18 47 7 17 5 17 -11 7 -16 -9 -33 -5 -99 23 -48 21 -84 43
-90 56 -13 28 -25 27 -25 -3z"/>
<path d="M625 1620 c-20 -8 -20 -9 1 -9 27 -1 74 -51 74 -79 0 -30 -72 -68
-90 -47 -6 8 -9 23 -5 35 7 23 5 24 -29 9 -25 -12 -27 -33 -3 -23 10 4 44 -34
35 -40 -2 -1 -20 -12 -41 -24 l-38 -22 -19 33 c-23 37 -24 41 -9 69 15 27 8
30 -18 8 l-23 -18 38 -74 c34 -67 39 -73 52 -57 8 9 49 35 90 57 57 30 80 38
93 31 9 -6 17 -7 17 -4 0 11 -63 130 -78 148 -17 19 -19 19 -47 7z"/>
<path d="M4232 1500 c-43 -80 -47 -112 -17 -124 12 -4 12 -1 3 19 -8 18 -8 32
2 54 20 50 33 55 80 31 40 -20 41 -22 27 -43 -9 -12 -20 -21 -26 -19 -23 5
-10 -18 19 -33 27 -14 45 -5 20 10 -10 6 8 55 21 55 11 0 79 -41 79 -48 0 -17
-54 -72 -71 -72 -10 0 -19 -5 -19 -11 0 -6 12 -9 27 -7 22 2 34 16 65 73 43
79 46 90 20 74 -15 -9 -34 -3 -105 36 -72 39 -87 50 -82 66 11 35 0 19 -43
-61z"/>
<path d="M4137 1337 c-12 -19 -13 -25 -3 -21 14 6 146 -81 146 -97 0 -5 -37
-9 -82 -10 -46 0 -103 -4 -127 -7 l-44 -7 86 -65 c57 -43 87 -72 87 -85 0 -18
2 -18 20 5 24 31 25 39 3 34 -11 -3 -42 13 -76 38 l-59 43 108 7 c91 6 111 11
131 30 27 26 31 43 5 27 -16 -10 -30 -3 -95 45 -42 32 -77 65 -79 74 -2 12 -7
10 -21 -11z"/>
<path d="M735 1314 c-33 -7 -81 -14 -107 -16 -27 -1 -48 -4 -48 -6 0 -1 8 -14
17 -28 16 -24 17 -25 24 -7 5 14 27 23 85 36 72 16 102 15 79 -1 -6 -4 -28
-29 -49 -57 -22 -27 -43 -54 -47 -59 -5 -5 -15 -4 -24 4 -25 21 -16 -3 15 -40
24 -28 30 -31 30 -16 0 11 32 61 70 113 69 91 70 93 43 92 -16 -1 -55 -7 -88
-15z"/>
<path d="M860 1122 c-50 -49 -81 -72 -92 -68 -27 7 -22 -7 18 -45 25 -23 33
-27 26 -13 -10 20 -4 28 63 84 60 49 79 60 97 54 23 -6 23 -6 -2 22 -14 16
-27 31 -30 34 -3 3 -39 -28 -80 -68z"/>
<path d="M3952 1104 c-17 -14 -37 -34 -42 -44 -14 -25 2 -65 35 -86 24 -16 28
-15 70 0 53 21 88 18 93 -7 6 -31 -28 -59 -63 -53 l-30 6 24 -21 24 -20 28 27
c80 77 21 153 -84 109 -41 -17 -63 -12 -79 18 -9 18 -6 24 17 44 15 14 34 22
41 19 49 -20 48 -21 29 7 -21 33 -22 33 -63 1z"/>
<path d="M960 1005 c-41 -41 -80 -75 -87 -75 -18 0 -16 -7 7 -32 l20 -22 0 21
c0 12 22 46 50 75 l49 53 0 -40 c0 -22 -4 -71 -8 -110 -8 -66 -7 -71 15 -95
l24 -25 0 26 c0 28 111 145 143 151 17 3 16 6 -7 27 l-26 24 0 -24 c0 -17 -18
-42 -55 -79 -30 -29 -56 -52 -58 -49 -5 5 11 196 18 227 3 12 2 22 -3 22 -4 0
-41 -34 -82 -75z"/>
<path d="M3806 965 c-37 -33 -38 -35 -15 -36 17 0 41 -20 79 -64 30 -36 57
-73 60 -84 5 -18 8 -17 40 11 19 17 27 28 18 25 -24 -8 -152 137 -145 164 3
11 4 19 4 19 -1 -1 -20 -16 -41 -35z"/>
<path d="M3671 854 c-54 -45 -30 -130 35 -125 86 8 107 6 117 -11 18 -28 -19
-61 -62 -54 -33 5 -33 5 -16 -14 24 -26 28 -25 70 11 40 36 45 69 14 100 -18
18 -28 20 -80 14 -64 -8 -89 2 -89 36 0 10 12 26 26 36 25 16 28 16 55 0 33
-18 39 -9 11 16 -26 23 -45 21 -81 -9z"/>
<path d="M1164 790 c-35 -43 -62 -69 -71 -66 -22 9 -14 -11 12 -28 23 -15 25
-15 25 0 0 20 84 140 104 147 26 10 71 -9 86 -36 14 -25 12 -29 -33 -96 -30
-43 -56 -71 -69 -73 -19 -3 -17 -6 17 -32 28 -21 37 -25 32 -12 -5 11 9 40 43
88 28 39 50 81 50 94 0 12 -13 36 -29 53 -23 25 -37 31 -70 31 -38 0 -43 -4
-97 -70z"/>
<path d="M2832 508 c-6 -6 -28 -12 -49 -12 -38 -2 -38 -2 -49 -56 -12 -59 -5
-80 26 -80 28 0 50 -33 50 -77 0 -55 -26 -78 -80 -70 -35 4 -39 3 -29 -9 18
-22 74 -17 104 9 20 16 28 35 32 68 6 55 -13 91 -58 109 -26 11 -30 18 -27 44
3 29 6 31 44 34 33 2 43 8 48 25 6 26 3 30 -12 15z"/>
<path d="M2133 487 c27 -11 28 -12 25 -86 -3 -69 -5 -77 -28 -88 -22 -11 -18
-13 45 -12 45 1 61 3 45 8 -24 7 -25 10 -25 90 0 74 2 84 18 87 46 7 24 14
-39 13 -61 -1 -66 -2 -41 -12z"/>
<path d="M2305 490 c3 -5 15 -10 26 -10 18 0 20 -6 17 -77 -3 -70 -5 -79 -27
-89 -21 -11 -17 -12 38 -16 65 -3 75 1 39 17 -27 12 -32 39 -23 112 5 43 10
53 25 53 10 0 22 5 25 10 4 6 -18 10 -60 10 -42 0 -64 -4 -60 -10z"/>
<path d="M2495 469 c-20 -37 -15 -46 10 -19 14 15 31 20 72 20 29 0 53 -2 53
-5 0 -3 -24 -54 -54 -113 -77 -154 -88 -182 -71 -182 7 0 17 10 21 23 5 16
106 231 142 300 2 4 -33 7 -77 7 -80 0 -81 0 -96 -31z"/>
</g>
</svg>
